<?xml version="1.0" encoding="UTF-8"?>
<svg id="Layer_2" data-name="Layer 2" xmlns="http://www.w3.org/2000/svg" viewBox="0 0 867.69 753.37">
  <defs>
    <style>
      .cls-1, .cls-2, .cls-3, .cls-4 {
        fill: none;
      }

      .cls-1, .cls-2, .cls-3, .cls-4, .cls-5 {
        stroke: #231f20;
      }

      .cls-1, .cls-3, .cls-5 {
        stroke-width: 35px;
      }

      .cls-1, .cls-5 {
        stroke-miterlimit: 10;
      }

      .cls-6 {
        fill: #fff;
      }

      .cls-6, .cls-7 {
        stroke-width: 0px;
      }

      .cls-2 {
        stroke-width: 29px;
      }

      .cls-2, .cls-3, .cls-4 {
        stroke-linecap: round;
        stroke-linejoin: round;
      }

      .cls-7, .cls-5 {
        fill: #231f20;
      }

      .cls-4 {
        stroke-width: 31px;
      }
    </style>
  </defs>
  <g id="Layer_2-2" data-name="Layer 2">
    <polygon class="cls-3" points="765.76 735.87 103.25 735.87 103.25 584.62 334.51 435.87 537.01 435.87 765.76 585.87 765.76 735.87"/>
    <line class="cls-1" x1="197.75" y1="523.83" x2="195.76" y2="735.87"/>
    <line class="cls-1" x1="665.45" y1="520.09" x2="665.76" y2="735.87"/>
    <circle class="cls-5" cx="319" cy="600.36" r="29.49"/>
    <circle class="cls-5" cx="545.56" cy="599.42" r="28.56"/>
    <path class="cls-7" d="M388.36,647.68c1.51,7.52,5.57,14.32,10.59,20.01s11.83,9.74,19,12.4c7.31,2.71,15.4,2.73,22.95,1.17,7.58-1.56,14.39-5.62,20.21-10.59,3.12-2.66,5.75-6.02,8-9.42s4.05-7.6,5.15-11.66c1.02-3.76.46-8.19-1.51-11.56-1.82-3.11-5.39-6.08-8.96-6.89-3.84-.87-8.15-.69-11.56,1.51s-5.85,5.12-6.89,8.96c-.31,1.15-.69,2.27-1.14,3.37l1.51-3.58c-.97,2.3-2.23,4.45-3.74,6.44l2.35-3.04c-1.61,2.07-3.46,3.92-5.52,5.55l3.04-2.35c-2.18,1.68-4.53,3.06-7.06,4.14l3.58-1.51c-2.31.95-4.7,1.63-7.17,1.99l3.99-.54c-2.36.32-4.72.34-7.08.05l3.99.54c-2.57-.35-5.06-1.04-7.45-2.04l3.58,1.51c-2.39-1.03-4.62-2.35-6.69-3.92l3.04,2.35c-2.15-1.67-4.07-3.59-5.73-5.74l2.35,3.04c-1.5-1.97-2.75-4.1-3.73-6.37l1.51,3.58c-.73-1.74-1.28-3.54-1.65-5.39-.71-3.54-3.86-7.19-6.89-8.96-3.22-1.88-7.95-2.68-11.56-1.51s-7.13,3.42-8.96,6.89l-1.51,3.58c-.71,2.66-.71,5.32,0,7.98h0Z"/>
    <circle class="cls-6" cx="291.03" cy="581.45" r="11.66"/>
    <circle class="cls-6" cx="576.69" cy="585.87" r="11.66"/>
    <path class="cls-2" d="M238.31,424.78l-123.31,86.74c0-187.94,148.31-318.59,318.9-319.75,171.55-1.16,313.8,129.26,318.05,316.35l-120.76-82.49"/>
    <path class="cls-4" d="M231.26,261.39l-64.73-71.01c-29.29,36.86-36.66,45.55-63.12,56.51-6.78,2.81-45.2,18.22-72.94-11.15-18.94-20.05-20.54-55.83-1.13-85.04,17.95-25.51,44.46-58.91,78.24-103.18,15.96-20.92,47.31-33.48,81.64-30.61,53.61,4.47,83.61,56.8,87.31,63.5l51.68,127.77"/>
    <path class="cls-4" d="M636.43,260.39l64.73-71.01c29.29,36.86,36.66,45.55,63.12,56.51,6.78,2.81,45.2,18.22,72.94-11.15,18.94-20.05,20.54-55.83,1.13-85.04-17.95-25.51-44.46-58.91-78.24-103.18-15.96-20.92-47.31-33.48-81.64-30.61-53.61,4.47-83.61,56.8-87.31,63.5l-51.68,127.77"/>
    <path class="cls-7" d="M411.67,110.35c-.22-1.97-.21-3.94.04-5.91l-.63,4.65c.32-2.27.93-4.45,1.81-6.57l-1.76,4.18c1.06-2.45,2.43-4.73,4.07-6.84l-2.74,3.54c1.93-2.44,4.15-4.61,6.59-6.53l-3.54,2.74c2.9-2.23,6.05-4.07,9.41-5.5l-4.18,1.76c3.4-1.42,6.94-2.36,10.59-2.88l-4.65.63c4.3-.58,8.65-.59,12.95-.04l-4.65-.63c4.16.56,8.22,1.64,12.09,3.25l-4.18-1.76c3.37,1.44,6.54,3.27,9.44,5.51l-3.54-2.74c2.45,1.92,4.66,4.11,6.57,6.56l-2.74-3.54c1.92,2.51,3.49,5.24,4.74,8.14l-1.76-4.18c1.31,3.14,2.22,6.41,2.7,9.77l-.63-4.65c.43,3.22.45,6.47.04,9.7l.63-4.65c-.4,2.85-1.14,5.61-2.25,8.27l1.76-4.18c-1.13,2.62-2.61,5.06-4.35,7.32l2.74-3.54c-1.62,2.04-3.48,3.82-5.53,5.42l3.54-2.74c-4.8,3.67-9.85,7.02-15.43,9.38l4.18-1.76c-3.88,1.63-7.83,3.12-11.59,5.01-1.16.58-2.29,1.21-3.35,1.95-2.14,1.47-4.41,3.05-6.18,4.99-3.94,4.31-6.41,9.24-7.52,14.96-1,5.2-1.6,10.53-1.57,15.82.02,4.05.36,8.08.51,12.12.17,4.59,1.84,9.09,5.13,12.37,1.59,1.71,3.46,2.91,5.63,3.62,2.09,1.1,4.33,1.6,6.74,1.51,4.53-.2,9.22-1.69,12.37-5.13s5.29-7.7,5.13-12.37c-.25-6.79-.89-13.55-.04-20.33l-.63,4.65c.33-2.43.68-5.04,1.61-7.32l-1.76,4.18c.32-.74.72-1.42,1.2-2.06l-2.74,3.54c.73-.94,1.58-1.75,2.52-2.49l-3.54,2.74c2.52-1.91,5.43-3.2,8.33-4.42l-4.18,1.76c3.72-1.56,7.5-3,11.12-4.78,2.4-1.18,4.55-2.73,6.76-4.23,3.44-2.32,6.83-4.73,9.98-7.42s5.58-5.93,7.87-9.23c5.09-7.33,7.39-15.96,8.11-24.74.37-4.46-.27-8.88-.96-13.28-.45-2.87-1.23-5.69-2.32-8.38-1.66-4.12-3.35-8.18-5.92-11.82s-5.17-6.98-8.42-9.83c-6.83-5.99-14.48-10.32-23.19-13.01-4.36-1.34-8.89-1.94-13.41-2.44-3.1-.34-6.24-.39-9.35-.14-4.38.36-8.87.91-13.12,2.11s-8.37,2.96-12.25,5.01c-8.27,4.37-15.26,10.98-20.42,18.74-2.46,3.7-4.34,7.99-5.52,12.26s-1.86,9.31-1.35,13.9c-.09,2.41.41,4.66,1.51,6.74.71,2.17,1.91,4.05,3.62,5.63,1.59,1.71,3.46,2.91,5.63,3.62,2.09,1.1,4.33,1.6,6.74,1.51,4.53-.2,9.22-1.69,12.37-5.13l2.74-3.54c1.58-2.73,2.38-5.67,2.39-8.83h0Z"/>
  </g>
</svg>